<?xml version="1.0" encoding="utf-8"?>
<svg baseProfile="tiny-ps" version="1.2" viewBox="0 0 258 258" xmlns="http://www.w3.org/2000/svg">
  <title>tou-attendance-plan</title>
  <!-- Generator: Adobe Illustrator 29.2.1, SVG Export Plug-In . SVG Version: 2.1.0 Build 116)  -->
  <rect x="132.23" y="132.23" width="116.1" height="116.1" rx="12.9" ry="12.9" fill="#fbbc05" />
  <g>
    <path d="M233.59,117.39l2.78-25.58c-1.32-1.18-2.12-3.07-2.12-5.18,0-2.47,1.1-4.65,2.77-5.74v-19.52l-9.57,5.43v9.94c0,9.98-19.56,20.14-38.76,20.14s-38.76-10.17-38.76-20.14v-9.94l-17.2-9.74c-1.51-.87-2.44-2.6-2.44-4.54s.93-3.68,2.43-4.53l49.85-28.28c1.89-1.08,4-1.65,6.11-1.65s4.22.57,6.11,1.65l46.28,26.24,3.57,2.03c1.31.74,2.21,2.21,2.37,3.85.04.2.06.43.06.69,0,.18,0,.55-.11.98l.06,27.38c1.68,1.09,2.79,3.27,2.79,5.76,0,2.1-.8,4-2.12,5.18l2.78,25.58h-16.89Z" />
    <path d="M188.69,20c1.77,0,3.55.48,5.16,1.39l46.29,26.24,3.56,2.03c.79.45,1.33,1.38,1.41,2.43h0s.05.27.05.42,0,.42-.11.69l.06,28.92c1.57.33,2.79,2.23,2.79,4.5,0,1.94-.92,3.63-2.23,4.24l2.67,24.58h-12.58l2.67-24.58c-1.32-.61-2.24-2.3-2.24-4.24,0-2.27,1.2-4.16,2.77-4.5v-24.09l-13.44,7.62v11.06c0,8.03-17.34,18.21-36.83,18.21-19.49,0-36.83-10.18-36.83-18.21h0v-11.06l-18.18-10.3c-.89-.51-1.46-1.63-1.46-2.85s.57-2.35,1.46-2.85l49.85-28.28c1.6-.91,3.39-1.39,5.16-1.39M188.69,16.13c-2.44,0-4.89.66-7.07,1.9l-49.84,28.27c-2.11,1.2-3.42,3.58-3.42,6.22s1.3,5,3.39,6.21l16.24,9.2v8.81c0,5.49,4.8,11.15,13.18,15.54,7.93,4.15,17.96,6.54,27.52,6.54,20.54,0,40.7-10.94,40.7-22.08v-8.81l5.7-3.23v15.27c-1.7,1.55-2.77,3.98-2.77,6.67,0,2.26.75,4.34,2.04,5.87l-2.45,22.54-.47,4.29h21.2l-.47-4.29-2.45-22.54c1.28-1.52,2.04-3.61,2.04-5.86,0-2.71-1.08-5.15-2.79-6.7l-.06-26.23c.09-.47.11-.88.11-1.19,0-.35-.03-.67-.08-.97-.25-2.25-1.48-4.2-3.33-5.25l-3.56-2.03-46.29-26.25c-2.18-1.24-4.62-1.9-7.07-1.9h0Z" fill="#fff" />
  </g>
  <g>
    <path d="M61.85,53.74h-20.12c-2.68,0-4.85-2.89-4.85-7.13s2.17-7.12,4.85-7.12h2.27c23.32,0,15.79-14.65,29.1-14.65,5.37,0,8.57,1.96,8.57,5.88v71.83c0,3.51-3.61,6.19-9.08,6.19s-9.08-2.68-9.08-6.19v-47.16c0-.93-.73-1.65-1.66-1.65Z" fill="#fff" />
    <path d="M73.1,24.84c-13.31,0-5.78,14.65-29.1,14.65h-2.27c-2.68,0-4.85,2.89-4.85,7.12s2.17,7.13,4.85,7.13h20.12c.93,0,1.66.72,1.66,1.65v47.16c0,3.51,3.61,6.19,9.08,6.19s9.08-2.68,9.08-6.19V30.72c0-3.92-3.2-5.88-8.57-5.88ZM22.58,125.78c-7.13,0-12.9-5.78-12.9-12.9V22.58c0-7.13,5.77-12.9,12.9-12.9h90.3c7.12,0,12.9,5.77,12.9,12.9v90.3c0,7.12-5.78,12.9-12.9,12.9H22.58Z" fill="#4285f4" />
  </g>
  <path d="M221.52,231.71c-6.5,0-9.08-1.86-10.11-5.57l-3.51-12.18h-30.86l-3.61,12.49c-1.03,3.61-4.33,5.16-9.49,5.16-4.75,0-8.15-2.17-8.15-5.47,0-.41.1-.93.21-1.44l20.12-68.32c1.24-4.13,5.57-7.43,9.91-7.43h13.73c4.33,0,8.67,3.3,9.91,7.43l20.12,67.29c.1.62.21,1.14.21,1.75,0,3.41-2.58,6.3-8.46,6.3ZM192.93,161.64c-.1-.41-.21-.62-.41-.62-.1,0-.31.21-.41.62l-10.94,37.77h22.6l-10.84-37.77Z" />
  <g>
    <rect x="79.17" y="173.03" width="10.4" height="3.75" fill="#ea4335" />
    <path d="M49.39,158.7h-18.36c-2.43,0-3.65-1.22-3.65-5.06s1.22-5.15,3.65-5.15h18.36c2.43,0,3.74,1.31,3.74,5.15s-1.31,5.06-3.74,5.06Z" fill="#fff" />
    <path d="M43.58,215.83v5.34c0,.84-.65,1.5-1.5,1.5h-3.65c-.84,0-1.5-.66-1.5-1.5v-5.34c0-.84.66-1.5,1.5-1.5h3.65c.85,0,1.5.66,1.5,1.5Z" fill="#ea4335" />
    <path d="M79.45,197.19v3.94h-6.55v-2.44c0-.84.65-1.5,1.49-1.5h5.06Z" fill="#ea4335" />
    <rect x="89.47" y="207.87" width="6.37" height="3.93" fill="#ea4335" />
    <rect x="79.17" y="161.23" width="10.4" height="3.84" fill="#ea4335" />
    <path d="M24.1,167.69c0-3.84,1.22-5.15,3.65-5.15h24.73c2.43,0,3.74,1.31,3.74,5.15s-1.31,5.06-3.74,5.06h-24.73c-2.43,0-3.65-1.22-3.65-5.06Z" fill="#fff" />
    <path d="M94.34,197.19h-4.87v3.94h6.37v-2.44c0-.84-.66-1.5-1.5-1.5ZM89.57,165.07v-3.84h-10.4v3.84h10.4ZM89.47,189.42h10.96c3.93,0,7.02,3.09,7.02,7.02v14.61h1.5c1.78,0,3.28,1.97,3.28,4.87s-1.5,4.97-3.28,4.97h-1.5v3.74c0,5.72-2.62,9.18-8.61,9.18h-7.12c-2.25,0-3.37-1.12-3.37-4.59,0-3.28,2.06-4.31,3.18-4.31h2.16c1.31,0,2.15-.93,2.15-2.34v-2.43h-22.94v9.46c0,2.81-1.5,4.21-5.81,4.21s-5.81-1.4-5.81-4.21v-8.71h-1.78c-1.78,0-3.28-1.97-3.28-4.97s1.5-4.87,3.28-4.87h1.78v-14.61c0-3.93,3.09-7.02,7.03-7.02h11.14v-3.47h-19.01c-2.25,0-3.28-1.12-3.28-4.59s1.03-4.58,3.28-4.58h6.46v-3.75h-3c-1.96,0-2.9-.94-2.9-3.93s.94-4.03,2.9-4.03h3v-3.84h-4.78c-2.24,0-3.27-1.13-3.27-4.59s1.03-4.59,3.27-4.59h4.78v-.94c0-2.99,1.5-4.59,6.09-4.59s6.18,1.6,6.18,4.59v.94h10.4v-.94c0-2.99,1.49-4.59,6.18-4.59s6.18,1.6,6.18,4.59v.94h4.68c2.25,0,3.37,1.22,3.37,4.59s-1.12,4.59-3.37,4.59h-4.68v3.84h2.81c1.96,0,2.99,1.03,2.99,4.03s-1.03,3.93-2.99,3.93h-2.81v3.75h6.27c2.25,0,3.37,1.21,3.37,4.58s-1.12,4.59-3.37,4.59h-18.73v3.47ZM95.84,211.8v-3.93h-6.37v3.93h6.37ZM89.57,176.78v-3.75h-10.4v3.75h10.4ZM79.45,211.8v-3.93h-6.55v3.93h6.55ZM79.45,201.13v-3.94h-5.06c-.84,0-1.49.66-1.49,1.5v2.44h6.55Z" fill="#fff" />
    <path d="M27.38,181.65c0-3.84,1.22-5.16,3.65-5.16h18.36c2.43,0,3.74,1.32,3.74,5.16s-1.31,5.05-3.74,5.05h-18.36c-2.43,0-3.65-1.21-3.65-5.05Z" fill="#fff" />
    <path d="M49.39,158.7c2.43,0,3.74-1.22,3.74-5.06s-1.31-5.15-3.74-5.15h-18.36c-2.43,0-3.65,1.31-3.65,5.15s1.22,5.06,3.65,5.06h18.36ZM52.48,162.54h-24.73c-2.43,0-3.65,1.31-3.65,5.15s1.22,5.06,3.65,5.06h24.73c2.43,0,3.74-1.22,3.74-5.06s-1.31-5.15-3.74-5.15ZM26.35,225.29c0,3.93,3.09,7.02,7.02,7.02h13.77c3.93,0,7.02-3.09,7.02-7.02v-13.58c0-3.93-3.09-7.03-7.02-7.03h-13.77c-3.93,0-7.02,3.1-7.02,7.03v13.58ZM27.38,195.6c0,3.93,1.22,5.15,3.75,5.15h18.16c2.53,0,3.84-1.22,3.84-5.15s-1.31-5.15-3.84-5.15h-18.16c-2.53,0-3.75,1.31-3.75,5.15ZM27.38,181.65c0,3.84,1.22,5.05,3.65,5.05h18.36c2.43,0,3.74-1.21,3.74-5.05s-1.31-5.16-3.74-5.16h-18.36c-2.43,0-3.65,1.32-3.65,5.16ZM125.78,235.42c0,7.13-5.78,12.91-12.9,12.91H22.58c-7.13,0-12.9-5.78-12.9-12.91v-90.3c0-7.12,5.77-12.9,12.9-12.9h90.3c7.12,0,12.9,5.78,12.9,12.9v90.3ZM91.72,233.81h7.12c5.99,0,8.61-3.46,8.61-9.18v-3.74h1.5c1.78,0,3.28-1.97,3.28-4.97s-1.5-4.87-3.28-4.87h-1.5v-14.61c0-3.93-3.09-7.02-7.02-7.02h-10.96v-3.47h18.73c2.25,0,3.37-1.12,3.37-4.59s-1.12-4.58-3.37-4.58h-6.27v-3.75h2.81c1.96,0,2.99-.94,2.99-3.93s-1.03-4.03-2.99-4.03h-2.81v-3.84h4.68c2.25,0,3.37-1.13,3.37-4.59s-1.12-4.59-3.37-4.59h-4.68v-.94c0-2.99-1.59-4.59-6.18-4.59s-6.18,1.6-6.18,4.59v.94h-10.4v-.94c0-2.99-1.59-4.59-6.18-4.59s-6.09,1.6-6.09,4.59v.94h-4.78c-2.24,0-3.27,1.22-3.27,4.59s1.03,4.59,3.27,4.59h4.78v3.84h-3c-1.96,0-2.9,1.03-2.9,4.03s.94,3.93,2.9,3.93h3v3.75h-6.46c-2.25,0-3.28,1.21-3.28,4.58s1.03,4.59,3.28,4.59h19.01v3.47h-11.14c-3.94,0-7.03,3.09-7.03,7.02v14.61h-1.78c-1.78,0-3.28,1.97-3.28,4.87s1.5,4.97,3.28,4.97h1.78v8.71c0,2.81,1.41,4.21,5.81,4.21s5.81-1.4,5.81-4.21v-9.46h22.94v2.43c0,1.41-.84,2.34-2.15,2.34h-2.16c-1.12,0-3.18,1.03-3.18,4.31,0,3.47,1.12,4.59,3.37,4.59Z" fill="#ea4335" />
    <path d="M49.29,200.75h-18.16c-2.53,0-3.75-1.22-3.75-5.15s1.22-5.15,3.75-5.15h18.16c2.53,0,3.84,1.31,3.84,5.15s-1.31,5.15-3.84,5.15Z" fill="#fff" />
    <rect x="72.9" y="207.87" width="6.55" height="3.93" fill="#ea4335" />
    <path d="M43.58,221.17v-5.34c0-.84-.65-1.5-1.5-1.5h-3.65c-.84,0-1.5.66-1.5,1.5v5.34c0,.84.66,1.5,1.5,1.5h3.65c.85,0,1.5-.66,1.5-1.5ZM33.37,232.31c-3.93,0-7.02-3.09-7.02-7.02v-13.58c0-3.93,3.09-7.03,7.02-7.03h13.77c3.93,0,7.02,3.1,7.02,7.03v13.58c0,3.93-3.09,7.02-7.02,7.02h-13.77Z" fill="#fff" />
    <path d="M89.47,197.19h4.87c.84,0,1.5.66,1.5,1.5v2.44h-6.37v-3.94Z" fill="#ea4335" />
  </g>
</svg>